<svg width="17" height="16" viewBox="0 0 17 16" fill="none" xmlns="http://www.w3.org/2000/svg">
<path d="M11.4706 2C11.4706 1.44772 11.9375 1 12.5134 1H14.599C15.1749 1 15.6418 1.44772 15.6418 2V14H16.1632C16.4511 14 16.6846 14.2239 16.6846 14.5C16.6846 14.7761 16.4511 15 16.1632 15H0.521393C0.233436 15 0 14.7761 0 14.5C0 14.2239 0.233436 14 0.521393 14H1.04279V11C1.04279 10.4477 1.50966 10 2.08557 10H4.17114C4.74706 10 5.21393 10.4477 5.21393 11V14H6.25672V7C6.25672 6.44772 6.72359 6 7.2995 6H9.38507C9.96099 6 10.4279 6.44772 10.4279 7V14H11.4706V2ZM12.5134 14H14.599V2H12.5134V14ZM9.38507 14V7H7.2995V14H9.38507ZM4.17114 14V11H2.08557V14H4.17114Z" fill="black"/>
</svg>
