<svg width="29" height="29" viewBox="0 0 29 29" fill="none" xmlns="http://www.w3.org/2000/svg">
<path fill-rule="evenodd" clip-rule="evenodd" d="M17.9865 22.6562C17.9865 23.1568 17.5838 23.5625 17.0871 23.5625L2.69762 23.5625C2.20093 23.5625 1.79828 23.1568 1.79828 22.6562L1.79828 6.34375C1.79828 5.84324 2.20093 5.4375 2.69762 5.4375L17.0871 5.4375C17.5838 5.4375 17.9865 5.84324 17.9865 6.34375L17.9865 9.96875C17.9865 10.4693 18.3891 10.875 18.8858 10.875C19.3825 10.875 19.7852 10.4693 19.7852 9.96875L19.7852 6.34375C19.7852 4.84223 18.5772 3.625 17.0871 3.625L2.69762 3.625C1.20754 3.625 -0.00040752 4.84222 -0.000407585 6.34375L-0.000408293 22.6562C-0.000408358 24.1578 1.20754 25.375 2.69762 25.375L17.0871 25.375C18.5772 25.375 19.7852 24.1578 19.7852 22.6562L19.7852 19.0312C19.7852 18.5307 19.3825 18.125 18.8858 18.125C18.3891 18.125 17.9865 18.5307 17.9865 19.0312L17.9865 22.6562Z" fill="black"/>
<path fill-rule="evenodd" clip-rule="evenodd" d="M28.5159 15.1408C28.8671 14.7869 28.8671 14.2131 28.5159 13.8592L23.1198 8.42168C22.7686 8.06777 22.1992 8.06777 21.848 8.42168C21.4967 8.7756 21.4967 9.3494 21.848 9.70332L25.7087 13.5937L9.89308 13.5937C9.39638 13.5937 8.99373 13.9995 8.99373 14.5C8.99373 15.0005 9.39638 15.4062 9.89308 15.4062L25.7087 15.4062L21.848 19.2967C21.4967 19.6506 21.4967 20.2244 21.848 20.5783C22.1992 20.9322 22.7686 20.9322 23.1198 20.5783L28.5159 15.1408Z" fill="black"/>
</svg>
