<svg width="21" height="21" viewBox="0 0 21 21" fill="none" xmlns="http://www.w3.org/2000/svg">
<path d="M6.5625 5.25C6.20006 5.25 5.90625 5.54381 5.90625 5.90625C5.90625 6.26869 6.20006 6.5625 6.5625 6.5625H14.4375C14.7999 6.5625 15.0938 6.26869 15.0938 5.90625C15.0938 5.54381 14.7999 5.25 14.4375 5.25H6.5625Z" fill="black"/>
<path d="M5.90625 8.53125C5.90625 8.16881 6.20006 7.875 6.5625 7.875H14.4375C14.7999 7.875 15.0938 8.16881 15.0938 8.53125C15.0938 8.89369 14.7999 9.1875 14.4375 9.1875H6.5625C6.20006 9.1875 5.90625 8.89369 5.90625 8.53125Z" fill="black"/>
<path d="M6.5625 10.5C6.20006 10.5 5.90625 10.7938 5.90625 11.1562C5.90625 11.5187 6.20006 11.8125 6.5625 11.8125H14.4375C14.7999 11.8125 15.0938 11.5187 15.0938 11.1562C15.0938 10.7938 14.7999 10.5 14.4375 10.5H6.5625Z" fill="black"/>
<path d="M6.5625 13.125C6.20006 13.125 5.90625 13.4188 5.90625 13.7812C5.90625 14.1437 6.20006 14.4375 6.5625 14.4375H10.5C10.8624 14.4375 11.1562 14.1437 11.1562 13.7812C11.1562 13.4188 10.8624 13.125 10.5 13.125H6.5625Z" fill="black"/>
<path d="M2.625 2.625C2.625 1.17525 3.80025 0 5.25 0H15.75C17.1997 0 18.375 1.17525 18.375 2.625V18.375C18.375 19.8247 17.1997 21 15.75 21H5.25C3.80025 21 2.625 19.8247 2.625 18.375V2.625ZM15.75 1.3125H5.25C4.52513 1.3125 3.9375 1.90013 3.9375 2.625V18.375C3.9375 19.0999 4.52513 19.6875 5.25 19.6875H15.75C16.4749 19.6875 17.0625 19.0999 17.0625 18.375V2.625C17.0625 1.90013 16.4749 1.3125 15.75 1.3125Z" fill="black"/>
</svg>
