<svg width="21" height="20" viewBox="0 0 21 20" fill="none" xmlns="http://www.w3.org/2000/svg">
<path d="M3.375 1.25C2.68464 1.25 2.125 1.80964 2.125 2.5V3.75C2.125 4.44036 2.68464 5 3.375 5H4V16.25C4 17.6307 5.11929 18.75 6.5 18.75H14C15.3807 18.75 16.5 17.6307 16.5 16.25V5H17.125C17.8154 5 18.375 4.44036 18.375 3.75V2.5C18.375 1.80964 17.8154 1.25 17.125 1.25H12.75C12.75 0.559644 12.1904 0 11.5 0H9C8.30964 0 7.75 0.559644 7.75 1.25H3.375ZM7.125 6.25C7.47018 6.25 7.75 6.52982 7.75 6.875V15.625C7.75 15.9702 7.47018 16.25 7.125 16.25C6.77982 16.25 6.5 15.9702 6.5 15.625L6.5 6.875C6.5 6.52982 6.77982 6.25 7.125 6.25ZM10.25 6.25C10.5952 6.25 10.875 6.52982 10.875 6.875V15.625C10.875 15.9702 10.5952 16.25 10.25 16.25C9.90482 16.25 9.625 15.9702 9.625 15.625V6.875C9.625 6.52982 9.90482 6.25 10.25 6.25ZM14 6.875V15.625C14 15.9702 13.7202 16.25 13.375 16.25C13.0298 16.25 12.75 15.9702 12.75 15.625V6.875C12.75 6.52982 13.0298 6.25 13.375 6.25C13.7202 6.25 14 6.52982 14 6.875Z" fill="#CF3333"/>
</svg>
