<svg width="21" height="20" viewBox="0 0 21 20" fill="none" xmlns="http://www.w3.org/2000/svg">
<path d="M17.6229 0.993221L17.8081 0.808031C18.3973 0.218775 19.3527 0.218775 19.942 0.808031C20.5312 1.39729 20.5312 2.35266 19.942 2.94191L19.7568 3.1271C20.4144 3.86335 20.3899 4.99401 19.6831 5.7008L6.81696 18.5669C6.73686 18.647 6.63649 18.7038 6.5266 18.7313L1.5266 19.9813C1.31361 20.0346 1.08831 19.9722 0.933072 19.8169C0.777834 19.6617 0.715428 19.4364 0.768674 19.2234L2.01867 14.2234C2.04615 14.1135 2.10297 14.0131 2.18307 13.933L14.2347 1.88145C13.9907 1.70946 13.6513 1.73257 13.4331 1.9508L9.31696 6.06691C9.07288 6.31099 8.67715 6.31099 8.43307 6.06691C8.18899 5.82284 8.18899 5.42711 8.43307 5.18303L12.5492 1.06691C13.2567 0.359448 14.3888 0.335518 15.125 0.995128C15.8347 0.359246 16.9124 0.358611 17.6229 0.993221Z" fill="#393939"/>
</svg>
